<svg xmlns="http://www.w3.org/2000/svg" viewBox="0 0 400 320" width="400" height="320">
  <defs>
    <linearGradient id="pl" x1="0" y1="0" x2="0" y2="1"><stop offset="0%" stop-color="#ffedd5"/><stop offset="100%" stop-color="#c2410c"/></linearGradient>
    <linearGradient id="st" x1="0" y1="0" x2="1" y2="0"><stop offset="0%" stop-color="#57534e"/><stop offset="50%" stop-color="#fafaf9"/><stop offset="100%" stop-color="#78716c"/></linearGradient>
  </defs>
  <g transform="translate(200,252)">
    <ellipse cx="0" cy="24" rx="88" ry="14" fill="rgba(0,0,0,0.2)"/>
    <g transform="translate(-95,0)"><path d="M-4-88 L4-88 L7-85 L7 15 L-4 15 Z" fill="url(#st)"/><path d="M4-88 L7-85 L7 15 L4 12 Z" fill="#44403c"/></g>
    <g transform="translate(95,0)"><path d="M-4-88 L4-88 L7-85 L7 15 L-4 15 Z" fill="url(#st)"/><path d="M4-88 L7-85 L7 15 L4 12 Z" fill="#44403c"/></g>
    <path d="M-105-48 L105-48 L108-44 L108-32 L-105-32 Z" fill="url(#pl)" stroke="#9a3412" stroke-width="1.2"/>
    <path d="M-105-32 L108-32 L108-22 L-105-22 Z" fill="#ea580c"/>
    <path d="M-105-48 L-105-32 L-105-22 L-105-32 Z" fill="#fb923c" opacity="0.55"/>
    <path d="M-95-46 L95-46" stroke="rgba(255,255,255,0.45)" stroke-width="2" stroke-linecap="round"/>
    <path d="M-32-102 L-24-108 L-24-94 Z" fill="#dc2626"/><path d="M32-102 L24-108 L24-94 Z" fill="#fafaf9"/>
  </g>
</svg>
